<svg xmlns="http://www.w3.org/2000/svg" viewBox="-4 0 128 128">
  <!-- Generated by scripts/make-icon.mjs -->
  <rect x="-4" y="0" width="128" height="128" fill="#E4EEF9"/>
  <rect x="61.00" y="53.50" width="3" height="8" rx="1.5" fill="#B8336A"/>
  <rect x="76.00" y="58.50" width="3" height="8" rx="1.5" fill="#B8336A" transform="rotate(90 77.50 62.50)"/>
  <rect x="61.00" y="73.50" width="3" height="8" rx="1.5" fill="#B8336A"/>
  <rect x="56.00" y="58.50" width="3" height="8" rx="1.5" fill="#B8336A" transform="rotate(90 57.50 62.50)"/>
  <rect x="66.00" y="53.50" width="3" height="8" rx="1.5" fill="#B8336A"/>
  <rect x="76.00" y="63.50" width="3" height="8" rx="1.5" fill="#B8336A" transform="rotate(90 77.50 67.50)"/>
  <rect x="66.00" y="73.50" width="3" height="8" rx="1.5" fill="#B8336A"/>
  <rect x="56.00" y="63.50" width="3" height="8" rx="1.5" fill="#B8336A" transform="rotate(90 57.50 67.50)"/>
  <rect x="71.00" y="53.50" width="3" height="8" rx="1.5" fill="#B8336A"/>
  <rect x="76.00" y="68.50" width="3" height="8" rx="1.5" fill="#B8336A" transform="rotate(90 77.50 72.50)"/>
  <rect x="71.00" y="73.50" width="3" height="8" rx="1.5" fill="#B8336A"/>
  <rect x="56.00" y="68.50" width="3" height="8" rx="1.5" fill="#B8336A" transform="rotate(90 57.50 72.50)"/>
  <rect x="76.00" y="53.50" width="3" height="8" rx="1.5" fill="#B8336A" transform="rotate(45 77.50 57.50)"/>
  <rect x="76.00" y="73.50" width="3" height="8" rx="1.5" fill="#B8336A" transform="rotate(-45 77.50 77.50)"/>
  <rect x="56.00" y="73.50" width="3" height="8" rx="1.5" fill="#B8336A" transform="rotate(45 57.50 77.50)"/>
  <rect x="56.00" y="53.50" width="3" height="8" rx="1.5" fill="#B8336A" transform="rotate(-45 57.50 57.50)"/>
  <rect x="51.00" y="43.50" width="3" height="8" rx="1.5" fill="#6D4BC3"/>
  <rect x="86.00" y="48.50" width="3" height="8" rx="1.5" fill="#6D4BC3" transform="rotate(90 87.50 52.50)"/>
  <rect x="51.00" y="83.50" width="3" height="8" rx="1.5" fill="#6D4BC3"/>
  <rect x="46.00" y="48.50" width="3" height="8" rx="1.5" fill="#6D4BC3" transform="rotate(90 47.50 52.50)"/>
  <rect x="55.29" y="43.50" width="3" height="8" rx="1.5" fill="#6D4BC3"/>
  <rect x="86.00" y="52.79" width="3" height="8" rx="1.5" fill="#6D4BC3" transform="rotate(90 87.50 56.79)"/>
  <rect x="55.29" y="83.50" width="3" height="8" rx="1.5" fill="#6D4BC3"/>
  <rect x="46.00" y="52.79" width="3" height="8" rx="1.5" fill="#6D4BC3" transform="rotate(90 47.50 56.79)"/>
  <rect x="59.57" y="43.50" width="3" height="8" rx="1.5" fill="#6D4BC3"/>
  <rect x="86.00" y="57.07" width="3" height="8" rx="1.5" fill="#6D4BC3" transform="rotate(90 87.50 61.07)"/>
  <rect x="59.57" y="83.50" width="3" height="8" rx="1.5" fill="#6D4BC3"/>
  <rect x="46.00" y="57.07" width="3" height="8" rx="1.5" fill="#6D4BC3" transform="rotate(90 47.50 61.07)"/>
  <rect x="63.86" y="43.50" width="3" height="8" rx="1.5" fill="#6D4BC3"/>
  <rect x="86.00" y="61.36" width="3" height="8" rx="1.5" fill="#6D4BC3" transform="rotate(90 87.50 65.36)"/>
  <rect x="63.86" y="83.50" width="3" height="8" rx="1.5" fill="#6D4BC3"/>
  <rect x="46.00" y="61.36" width="3" height="8" rx="1.5" fill="#6D4BC3" transform="rotate(90 47.50 65.36)"/>
  <rect x="68.14" y="43.50" width="3" height="8" rx="1.5" fill="#6D4BC3"/>
  <rect x="86.00" y="65.64" width="3" height="8" rx="1.5" fill="#6D4BC3" transform="rotate(90 87.50 69.64)"/>
  <rect x="68.14" y="83.50" width="3" height="8" rx="1.5" fill="#6D4BC3"/>
  <rect x="46.00" y="65.64" width="3" height="8" rx="1.5" fill="#6D4BC3" transform="rotate(90 47.50 69.64)"/>
  <rect x="72.43" y="43.50" width="3" height="8" rx="1.5" fill="#6D4BC3"/>
  <rect x="86.00" y="69.93" width="3" height="8" rx="1.5" fill="#6D4BC3" transform="rotate(90 87.50 73.93)"/>
  <rect x="72.43" y="83.50" width="3" height="8" rx="1.5" fill="#6D4BC3"/>
  <rect x="46.00" y="69.93" width="3" height="8" rx="1.5" fill="#6D4BC3" transform="rotate(90 47.50 73.93)"/>
  <rect x="76.71" y="43.50" width="3" height="8" rx="1.5" fill="#6D4BC3"/>
  <rect x="86.00" y="74.21" width="3" height="8" rx="1.5" fill="#6D4BC3" transform="rotate(90 87.50 78.21)"/>
  <rect x="76.71" y="83.50" width="3" height="8" rx="1.5" fill="#6D4BC3"/>
  <rect x="46.00" y="74.21" width="3" height="8" rx="1.5" fill="#6D4BC3" transform="rotate(90 47.50 78.21)"/>
  <rect x="81.00" y="43.50" width="3" height="8" rx="1.5" fill="#6D4BC3"/>
  <rect x="86.00" y="78.50" width="3" height="8" rx="1.5" fill="#6D4BC3" transform="rotate(90 87.50 82.50)"/>
  <rect x="81.00" y="83.50" width="3" height="8" rx="1.5" fill="#6D4BC3"/>
  <rect x="46.00" y="78.50" width="3" height="8" rx="1.5" fill="#6D4BC3" transform="rotate(90 47.50 82.50)"/>
  <rect x="86.00" y="43.50" width="3" height="8" rx="1.5" fill="#6D4BC3" transform="rotate(45 87.50 47.50)"/>
  <rect x="86.00" y="83.50" width="3" height="8" rx="1.5" fill="#6D4BC3" transform="rotate(-45 87.50 87.50)"/>
  <rect x="46.00" y="83.50" width="3" height="8" rx="1.5" fill="#6D4BC3" transform="rotate(45 47.50 87.50)"/>
  <rect x="46.00" y="43.50" width="3" height="8" rx="1.5" fill="#6D4BC3" transform="rotate(-45 47.50 47.50)"/>
  <rect x="41.00" y="33.50" width="3" height="8" rx="1.5" fill="#0E7C7B"/>
  <rect x="96.00" y="38.50" width="3" height="8" rx="1.5" fill="#0E7C7B" transform="rotate(90 97.50 42.50)"/>
  <rect x="41.00" y="93.50" width="3" height="8" rx="1.5" fill="#0E7C7B"/>
  <rect x="36.00" y="38.50" width="3" height="8" rx="1.5" fill="#0E7C7B" transform="rotate(90 37.50 42.50)"/>
  <rect x="45.55" y="33.50" width="3" height="8" rx="1.5" fill="#0E7C7B"/>
  <rect x="96.00" y="43.05" width="3" height="8" rx="1.5" fill="#0E7C7B" transform="rotate(90 97.50 47.05)"/>
  <rect x="45.55" y="93.50" width="3" height="8" rx="1.5" fill="#0E7C7B"/>
  <rect x="36.00" y="43.05" width="3" height="8" rx="1.5" fill="#0E7C7B" transform="rotate(90 37.50 47.05)"/>
  <rect x="50.09" y="33.50" width="3" height="8" rx="1.5" fill="#0E7C7B"/>
  <rect x="96.00" y="47.59" width="3" height="8" rx="1.5" fill="#0E7C7B" transform="rotate(90 97.50 51.59)"/>
  <rect x="50.09" y="93.50" width="3" height="8" rx="1.5" fill="#0E7C7B"/>
  <rect x="36.00" y="47.59" width="3" height="8" rx="1.5" fill="#0E7C7B" transform="rotate(90 37.50 51.59)"/>
  <rect x="54.64" y="33.50" width="3" height="8" rx="1.5" fill="#0E7C7B"/>
  <rect x="96.00" y="52.14" width="3" height="8" rx="1.5" fill="#0E7C7B" transform="rotate(90 97.50 56.14)"/>
  <rect x="54.64" y="93.50" width="3" height="8" rx="1.5" fill="#0E7C7B"/>
  <rect x="36.00" y="52.14" width="3" height="8" rx="1.5" fill="#0E7C7B" transform="rotate(90 37.50 56.14)"/>
  <rect x="59.18" y="33.50" width="3" height="8" rx="1.5" fill="#0E7C7B"/>
  <rect x="96.00" y="56.68" width="3" height="8" rx="1.5" fill="#0E7C7B" transform="rotate(90 97.50 60.68)"/>
  <rect x="59.18" y="93.50" width="3" height="8" rx="1.5" fill="#0E7C7B"/>
  <rect x="36.00" y="56.68" width="3" height="8" rx="1.5" fill="#0E7C7B" transform="rotate(90 37.50 60.68)"/>
  <rect x="63.73" y="33.50" width="3" height="8" rx="1.5" fill="#0E7C7B"/>
  <rect x="96.00" y="61.23" width="3" height="8" rx="1.5" fill="#0E7C7B" transform="rotate(90 97.50 65.23)"/>
  <rect x="63.73" y="93.50" width="3" height="8" rx="1.5" fill="#0E7C7B"/>
  <rect x="36.00" y="61.23" width="3" height="8" rx="1.5" fill="#0E7C7B" transform="rotate(90 37.50 65.23)"/>
  <rect x="68.27" y="33.50" width="3" height="8" rx="1.5" fill="#0E7C7B"/>
  <rect x="96.00" y="65.77" width="3" height="8" rx="1.5" fill="#0E7C7B" transform="rotate(90 97.50 69.77)"/>
  <rect x="68.27" y="93.50" width="3" height="8" rx="1.5" fill="#0E7C7B"/>
  <rect x="36.00" y="65.77" width="3" height="8" rx="1.5" fill="#0E7C7B" transform="rotate(90 37.50 69.77)"/>
  <rect x="72.82" y="33.50" width="3" height="8" rx="1.5" fill="#0E7C7B"/>
  <rect x="96.00" y="70.32" width="3" height="8" rx="1.5" fill="#0E7C7B" transform="rotate(90 97.50 74.32)"/>
  <rect x="72.82" y="93.50" width="3" height="8" rx="1.5" fill="#0E7C7B"/>
  <rect x="36.00" y="70.32" width="3" height="8" rx="1.5" fill="#0E7C7B" transform="rotate(90 37.50 74.32)"/>
  <rect x="77.36" y="33.50" width="3" height="8" rx="1.5" fill="#0E7C7B"/>
  <rect x="96.00" y="74.86" width="3" height="8" rx="1.5" fill="#0E7C7B" transform="rotate(90 97.50 78.86)"/>
  <rect x="77.36" y="93.50" width="3" height="8" rx="1.5" fill="#0E7C7B"/>
  <rect x="36.00" y="74.86" width="3" height="8" rx="1.5" fill="#0E7C7B" transform="rotate(90 37.50 78.86)"/>
  <rect x="81.91" y="33.50" width="3" height="8" rx="1.5" fill="#0E7C7B"/>
  <rect x="96.00" y="79.41" width="3" height="8" rx="1.5" fill="#0E7C7B" transform="rotate(90 97.50 83.41)"/>
  <rect x="81.91" y="93.50" width="3" height="8" rx="1.5" fill="#0E7C7B"/>
  <rect x="36.00" y="79.41" width="3" height="8" rx="1.5" fill="#0E7C7B" transform="rotate(90 37.50 83.41)"/>
  <rect x="86.45" y="33.50" width="3" height="8" rx="1.5" fill="#0E7C7B"/>
  <rect x="96.00" y="83.95" width="3" height="8" rx="1.5" fill="#0E7C7B" transform="rotate(90 97.50 87.95)"/>
  <rect x="86.45" y="93.50" width="3" height="8" rx="1.5" fill="#0E7C7B"/>
  <rect x="36.00" y="83.95" width="3" height="8" rx="1.5" fill="#0E7C7B" transform="rotate(90 37.50 87.95)"/>
  <rect x="91.00" y="33.50" width="3" height="8" rx="1.5" fill="#0E7C7B"/>
  <rect x="96.00" y="88.50" width="3" height="8" rx="1.5" fill="#0E7C7B" transform="rotate(90 97.50 92.50)"/>
  <rect x="91.00" y="93.50" width="3" height="8" rx="1.5" fill="#0E7C7B"/>
  <rect x="36.00" y="88.50" width="3" height="8" rx="1.5" fill="#0E7C7B" transform="rotate(90 37.50 92.50)"/>
  <rect x="96.00" y="33.50" width="3" height="8" rx="1.5" fill="#0E7C7B" transform="rotate(45 97.50 37.50)"/>
  <rect x="96.00" y="93.50" width="3" height="8" rx="1.5" fill="#0E7C7B" transform="rotate(-45 97.50 97.50)"/>
  <rect x="36.00" y="93.50" width="3" height="8" rx="1.5" fill="#0E7C7B" transform="rotate(45 37.50 97.50)"/>
  <rect x="36.00" y="33.50" width="3" height="8" rx="1.5" fill="#0E7C7B" transform="rotate(-45 37.50 37.50)"/>
  <rect x="31.00" y="23.50" width="3" height="8" rx="1.5" fill="#4169E1"/>
  <rect x="106.00" y="28.50" width="3" height="8" rx="1.5" fill="#4169E1" transform="rotate(90 107.50 32.50)"/>
  <rect x="31.00" y="103.50" width="3" height="8" rx="1.5" fill="#4169E1"/>
  <rect x="35.38" y="23.50" width="3" height="8" rx="1.5" fill="#4169E1"/>
  <rect x="106.00" y="32.88" width="3" height="8" rx="1.5" fill="#4169E1" transform="rotate(90 107.50 36.88)"/>
  <rect x="35.38" y="103.50" width="3" height="8" rx="1.5" fill="#4169E1"/>
  <rect x="39.75" y="23.50" width="3" height="8" rx="1.5" fill="#4169E1"/>
  <rect x="106.00" y="37.25" width="3" height="8" rx="1.5" fill="#4169E1" transform="rotate(90 107.50 41.25)"/>
  <rect x="39.75" y="103.50" width="3" height="8" rx="1.5" fill="#4169E1"/>
  <rect x="44.13" y="23.50" width="3" height="8" rx="1.5" fill="#4169E1"/>
  <rect x="106.00" y="41.63" width="3" height="8" rx="1.5" fill="#4169E1" transform="rotate(90 107.50 45.63)"/>
  <rect x="44.13" y="103.50" width="3" height="8" rx="1.5" fill="#4169E1"/>
  <rect x="48.50" y="23.50" width="3" height="8" rx="1.5" fill="#4169E1"/>
  <rect x="106.00" y="46.00" width="3" height="8" rx="1.5" fill="#4169E1" transform="rotate(90 107.50 50.00)"/>
  <rect x="48.50" y="103.50" width="3" height="8" rx="1.5" fill="#4169E1"/>
  <rect x="52.88" y="23.50" width="3" height="8" rx="1.5" fill="#4169E1"/>
  <rect x="106.00" y="50.38" width="3" height="8" rx="1.5" fill="#4169E1" transform="rotate(90 107.50 54.38)"/>
  <rect x="52.88" y="103.50" width="3" height="8" rx="1.5" fill="#4169E1"/>
  <rect x="57.25" y="23.50" width="3" height="8" rx="1.5" fill="#4169E1"/>
  <rect x="106.00" y="54.75" width="3" height="8" rx="1.5" fill="#4169E1" transform="rotate(90 107.50 58.75)"/>
  <rect x="57.25" y="103.50" width="3" height="8" rx="1.5" fill="#4169E1"/>
  <rect x="61.63" y="23.50" width="3" height="8" rx="1.5" fill="#4169E1"/>
  <rect x="106.00" y="59.13" width="3" height="8" rx="1.5" fill="#4169E1" transform="rotate(90 107.50 63.13)"/>
  <rect x="61.63" y="103.50" width="3" height="8" rx="1.5" fill="#4169E1"/>
  <rect x="66.00" y="23.50" width="3" height="8" rx="1.5" fill="#4169E1"/>
  <rect x="106.00" y="63.50" width="3" height="8" rx="1.5" fill="#4169E1" transform="rotate(90 107.50 67.50)"/>
  <rect x="66.00" y="103.50" width="3" height="8" rx="1.5" fill="#4169E1"/>
  <rect x="70.38" y="23.50" width="3" height="8" rx="1.5" fill="#4169E1"/>
  <rect x="106.00" y="67.88" width="3" height="8" rx="1.5" fill="#4169E1" transform="rotate(90 107.50 71.88)"/>
  <rect x="70.38" y="103.50" width="3" height="8" rx="1.5" fill="#4169E1"/>
  <rect x="26.00" y="67.88" width="3" height="8" rx="1.5" fill="#4169E1" transform="rotate(90 27.50 71.88)"/>
  <rect x="74.75" y="23.50" width="3" height="8" rx="1.5" fill="#4169E1"/>
  <rect x="106.00" y="72.25" width="3" height="8" rx="1.5" fill="#4169E1" transform="rotate(90 107.50 76.25)"/>
  <rect x="74.75" y="103.50" width="3" height="8" rx="1.5" fill="#4169E1"/>
  <rect x="26.00" y="72.25" width="3" height="8" rx="1.5" fill="#4169E1" transform="rotate(90 27.50 76.25)"/>
  <rect x="79.13" y="23.50" width="3" height="8" rx="1.5" fill="#4169E1"/>
  <rect x="106.00" y="76.63" width="3" height="8" rx="1.5" fill="#4169E1" transform="rotate(90 107.50 80.63)"/>
  <rect x="79.13" y="103.50" width="3" height="8" rx="1.5" fill="#4169E1"/>
  <rect x="26.00" y="76.63" width="3" height="8" rx="1.5" fill="#4169E1" transform="rotate(90 27.50 80.63)"/>
  <rect x="83.50" y="23.50" width="3" height="8" rx="1.5" fill="#4169E1"/>
  <rect x="106.00" y="81.00" width="3" height="8" rx="1.5" fill="#4169E1" transform="rotate(90 107.50 85.00)"/>
  <rect x="83.50" y="103.50" width="3" height="8" rx="1.5" fill="#4169E1"/>
  <rect x="26.00" y="81.00" width="3" height="8" rx="1.5" fill="#4169E1" transform="rotate(90 27.50 85.00)"/>
  <rect x="87.88" y="23.50" width="3" height="8" rx="1.5" fill="#4169E1"/>
  <rect x="106.00" y="85.38" width="3" height="8" rx="1.5" fill="#4169E1" transform="rotate(90 107.50 89.38)"/>
  <rect x="87.88" y="103.50" width="3" height="8" rx="1.5" fill="#4169E1"/>
  <rect x="26.00" y="85.38" width="3" height="8" rx="1.5" fill="#4169E1" transform="rotate(90 27.50 89.38)"/>
  <rect x="92.25" y="23.50" width="3" height="8" rx="1.5" fill="#4169E1"/>
  <rect x="106.00" y="89.75" width="3" height="8" rx="1.5" fill="#4169E1" transform="rotate(90 107.50 93.75)"/>
  <rect x="92.25" y="103.50" width="3" height="8" rx="1.5" fill="#4169E1"/>
  <rect x="26.00" y="89.75" width="3" height="8" rx="1.5" fill="#4169E1" transform="rotate(90 27.50 93.75)"/>
  <rect x="96.63" y="23.50" width="3" height="8" rx="1.5" fill="#4169E1"/>
  <rect x="106.00" y="94.13" width="3" height="8" rx="1.5" fill="#4169E1" transform="rotate(90 107.50 98.13)"/>
  <rect x="96.63" y="103.50" width="3" height="8" rx="1.5" fill="#4169E1"/>
  <rect x="26.00" y="94.13" width="3" height="8" rx="1.5" fill="#4169E1" transform="rotate(90 27.50 98.13)"/>
  <rect x="101.00" y="23.50" width="3" height="8" rx="1.5" fill="#4169E1"/>
  <rect x="106.00" y="98.50" width="3" height="8" rx="1.5" fill="#4169E1" transform="rotate(90 107.50 102.50)"/>
  <rect x="101.00" y="103.50" width="3" height="8" rx="1.5" fill="#4169E1"/>
  <rect x="26.00" y="98.50" width="3" height="8" rx="1.5" fill="#4169E1" transform="rotate(90 27.50 102.50)"/>
  <rect x="106.00" y="23.50" width="3" height="8" rx="1.5" fill="#4169E1" transform="rotate(45 107.50 27.50)"/>
  <rect x="106.00" y="103.50" width="3" height="8" rx="1.5" fill="#4169E1" transform="rotate(-45 107.50 107.50)"/>
  <rect x="26.00" y="103.50" width="3" height="8" rx="1.5" fill="#4169E1" transform="rotate(45 27.50 107.50)"/>
  <line x1="27.5" y1="64" x2="12" y2="20" stroke="#F6B93B" stroke-width="6" stroke-linecap="round"/>
  <path d="M27.5 64 C30 70 23 73 21 68" fill="none" stroke="#F6B93B" stroke-width="4.5" stroke-linecap="round"/>
</svg>
